{
	"asset": {
		"generator": "Tilt Brush 23.2.28f36f08b",
		"version": "1.1",
		"copyright": "Unknown."
	},
	"buffers": {
		"buffer_sketch": {
			"byteLength": 397932,
			"type": "arraybuffer",
			"uri": "sketch.bin"
		}
	},
	"accessors": {
		"accessor_position_ShinyHull_faaa4d44-fcfb-4177-96be-753ac0421ba3_0_i0": {
			"bufferView": "vec3BufferView",
			"byteOffset": 0,
			"byteStride": 12,
			"componentType": 5126,
			"count": 7158,
			"max": [ -0.347804159, 3.09208393, -0.063358441 ],
			"min": [ -0.583583415, 2.64808583, -0.226718232 ],
			"type": "VEC3"
		},
		"accessor_normal_ShinyHull_faaa4d44-fcfb-4177-96be-753ac0421ba3_0_i0": {
			"bufferView": "vec3BufferView",
			"byteOffset": 85896,
			"byteStride": 12,
			"componentType": 5126,
			"count": 7158,
			"type": "VEC3"
		},
		"accessor_color_ShinyHull_faaa4d44-fcfb-4177-96be-753ac0421ba3_0_i0": {
			"bufferView": "vec4BufferView",
			"byteOffset": 0,
			"byteStride": 16,
			"componentType": 5126,
			"count": 7158,
			"type": "VEC4"
		},
		"accessor_uv0_ShinyHull_faaa4d44-fcfb-4177-96be-753ac0421ba3_0_i0": {
			"bufferView": "vec3BufferView",
			"byteOffset": 171792,
			"byteStride": 12,
			"componentType": 5126,
			"count": 7158,
			"type": "VEC3"
		},
		"accessor_indices_0_ShinyHull_faaa4d44-fcfb-4177-96be-753ac0421ba3_0_i0": {
			"bufferView": "ushortBufferView",
			"byteOffset": 0,
			"byteStride": 0,
			"componentType": 5123,
			"count": 7158,
			"max": [ 7157 ],
			"min": [ 0 ],
			"type": "SCALAR"
		},
		"accessor_position_Spikes_cf7f0059-7aeb-53a4-2b67-c83d863a9ffa_0_i0": {
			"bufferView": "vec3BufferView",
			"byteOffset": 257688,
			"byteStride": 12,
			"componentType": 5126,
			"count": 156,
			"max": [ -0.35844934, 3.09175801, -0.0902520344 ],
			"min": [ -0.568081498, 3.03071666, -0.136451423 ],
			"type": "VEC3"
		},
		"accessor_normal_Spikes_cf7f0059-7aeb-53a4-2b67-c83d863a9ffa_0_i0": {
			"bufferView": "vec3BufferView",
			"byteOffset": 259560,
			"byteStride": 12,
			"componentType": 5126,
			"count": 156,
			"type": "VEC3"
		},
		"accessor_color_Spikes_cf7f0059-7aeb-53a4-2b67-c83d863a9ffa_0_i0": {
			"bufferView": "vec4BufferView",
			"byteOffset": 114528,
			"byteStride": 16,
			"componentType": 5126,
			"count": 156,
			"type": "VEC4"
		},
		"accessor_tangent_Spikes_cf7f0059-7aeb-53a4-2b67-c83d863a9ffa_0_i0": {
			"bufferView": "vec4BufferView",
			"byteOffset": 117024,
			"byteStride": 16,
			"componentType": 5126,
			"count": 156,
			"type": "VEC4"
		},
		"accessor_uv0_Spikes_cf7f0059-7aeb-53a4-2b67-c83d863a9ffa_0_i0": {
			"bufferView": "vec3BufferView",
			"byteOffset": 261432,
			"byteStride": 12,
			"componentType": 5126,
			"count": 156,
			"type": "VEC3"
		},
		"accessor_indices_0_Spikes_cf7f0059-7aeb-53a4-2b67-c83d863a9ffa_0_i0": {
			"bufferView": "ushortBufferView",
			"byteOffset": 14316,
			"byteStride": 0,
			"componentType": 5123,
			"count": 396,
			"max": [ 155 ],
			"min": [ 0 ],
			"type": "SCALAR"
		}
	},
	"bufferViews": {
		"ushortBufferView": {
			"buffer": "buffer_sketch",
			"byteLength": 15108,
			"byteOffset": 0,
			"target": 34963
		},
		"vec3BufferView": {
			"buffer": "buffer_sketch",
			"byteLength": 263304,
			"byteOffset": 15108,
			"target": 34962
		},
		"vec4BufferView": {
			"buffer": "buffer_sketch",
			"byteLength": 119520,
			"byteOffset": 278412,
			"target": 34962
		}
	},
	"meshes": {
		"mesh_ShinyHull_faaa4d44-fcfb-4177-96be-753ac0421ba3_0_i0": {
			"name": "mesh_ShinyHull_faaa4d44-fcfb-4177-96be-753ac0421ba3_0_i0",
			"primitives": [
				{
					"attributes": {
						"POSITION": "accessor_position_ShinyHull_faaa4d44-fcfb-4177-96be-753ac0421ba3_0_i0",
						"NORMAL": "accessor_normal_ShinyHull_faaa4d44-fcfb-4177-96be-753ac0421ba3_0_i0",
						"COLOR": "accessor_color_ShinyHull_faaa4d44-fcfb-4177-96be-753ac0421ba3_0_i0",
						"TEXCOORD_0": "accessor_uv0_ShinyHull_faaa4d44-fcfb-4177-96be-753ac0421ba3_0_i0"
					},
					"indices": "accessor_indices_0_ShinyHull_faaa4d44-fcfb-4177-96be-753ac0421ba3_0_i0",
					"material": "material_faaa4d44-fcfb-4177-96be-753ac0421ba3",
					"mode": 4
				}
			]
		},
		"mesh_Spikes_cf7f0059-7aeb-53a4-2b67-c83d863a9ffa_0_i0": {
			"name": "mesh_Spikes_cf7f0059-7aeb-53a4-2b67-c83d863a9ffa_0_i0",
			"primitives": [
				{
					"attributes": {
						"POSITION": "accessor_position_Spikes_cf7f0059-7aeb-53a4-2b67-c83d863a9ffa_0_i0",
						"NORMAL": "accessor_normal_Spikes_cf7f0059-7aeb-53a4-2b67-c83d863a9ffa_0_i0",
						"COLOR": "accessor_color_Spikes_cf7f0059-7aeb-53a4-2b67-c83d863a9ffa_0_i0",
						"TANGENT": "accessor_tangent_Spikes_cf7f0059-7aeb-53a4-2b67-c83d863a9ffa_0_i0",
						"TEXCOORD_0": "accessor_uv0_Spikes_cf7f0059-7aeb-53a4-2b67-c83d863a9ffa_0_i0"
					},
					"indices": "accessor_indices_0_Spikes_cf7f0059-7aeb-53a4-2b67-c83d863a9ffa_0_i0",
					"material": "material_cf7f0059-7aeb-53a4-2b67-c83d863a9ffa",
					"mode": 4
				}
			]
		}
	},
	"shaders": {
		"vertex_faaa4d44-fcfb-4177-96be-753ac0421ba3": {
			"type": 35633,
			"uri": "https://www.tiltbrush.com/shaders/brushes/ShinyHull-faaa4d44-fcfb-4177-96be-753ac0421ba3/ShinyHull-faaa4d44-fcfb-4177-96be-753ac0421ba3-v10.0-vertex.glsl"
		},
		"fragment_faaa4d44-fcfb-4177-96be-753ac0421ba3": {
			"type": 35632,
			"uri": "https://www.tiltbrush.com/shaders/brushes/ShinyHull-faaa4d44-fcfb-4177-96be-753ac0421ba3/ShinyHull-faaa4d44-fcfb-4177-96be-753ac0421ba3-v10.0-fragment.glsl"
		},
		"vertex_cf7f0059-7aeb-53a4-2b67-c83d863a9ffa": {
			"type": 35633,
			"uri": "https://www.tiltbrush.com/shaders/brushes/Spikes-cf7f0059-7aeb-53a4-2b67-c83d863a9ffa/Spikes-cf7f0059-7aeb-53a4-2b67-c83d863a9ffa-v10.0-vertex.glsl"
		},
		"fragment_cf7f0059-7aeb-53a4-2b67-c83d863a9ffa": {
			"type": 35632,
			"uri": "https://www.tiltbrush.com/shaders/brushes/Spikes-cf7f0059-7aeb-53a4-2b67-c83d863a9ffa/Spikes-cf7f0059-7aeb-53a4-2b67-c83d863a9ffa-v10.0-fragment.glsl"
		}
	},
	"programs": {
		"program_faaa4d44-fcfb-4177-96be-753ac0421ba3": {
			"attributes": [
				"a_position",
				"a_normal",
				"a_color",
				"a_texcoord0"
			],
			"vertexShader": "vertex_faaa4d44-fcfb-4177-96be-753ac0421ba3",
			"fragmentShader": "fragment_faaa4d44-fcfb-4177-96be-753ac0421ba3"
		},
		"program_cf7f0059-7aeb-53a4-2b67-c83d863a9ffa": {
			"attributes": [
				"a_position",
				"a_normal",
				"a_color",
				"a_tangent",
				"a_texcoord0"
			],
			"vertexShader": "vertex_cf7f0059-7aeb-53a4-2b67-c83d863a9ffa",
			"fragmentShader": "fragment_cf7f0059-7aeb-53a4-2b67-c83d863a9ffa"
		}
	},
	"techniques": {
		"technique_faaa4d44-fcfb-4177-96be-753ac0421ba3": {
			"program": "program_faaa4d44-fcfb-4177-96be-753ac0421ba3",
			"parameters": {
				"position": {
					"type": 35665,
					"semantic": "POSITION"
				},
				"normal": {
					"type": 35665,
					"semantic": "NORMAL"
				},
				"color": {
					"type": 35666,
					"semantic": "COLOR"
				},
				"texcoord0": {
					"type": 35665,
					"semantic": "TEXCOORD_0"
				},
				"modelViewMatrix": {
					"type": 35676,
					"semantic": "MODELVIEW"
				},
				"projectionMatrix": {
					"type": 35676,
					"semantic": "PROJECTION"
				},
				"normalMatrix": {
					"type": 35675,
					"semantic": "MODELVIEWINVERSETRANSPOSE"
				},
				"SceneLight_0_matrix": {
					"type": 35676,
					"semantic": "MODELVIEW",
					"node": "node_SceneLight_0_i1"
				},
				"SceneLight_0_color": {
					"type": 35666,
					"node": "node_SceneLight_0_i1"
				},
				"SceneLight_1_matrix": {
					"type": 35676,
					"semantic": "MODELVIEW",
					"node": "node_SceneLight_1_i2"
				},
				"SceneLight_1_color": {
					"type": 35666,
					"node": "node_SceneLight_1_i2"
				},
				"ambient_light_color": {
					"type": 35666
				},
				"Shininess": {
					"type": 5126
				},
				"Cutoff": {
					"type": 5126
				},
				"Color": {
					"type": 35666
				},
				"SpecColor": {
					"type": 35666
				}
			},
			"attributes": {
				"a_position": "position",
				"a_normal": "normal",
				"a_color": "color",
				"a_texcoord0": "texcoord0"
			},
			"uniforms": {
				"u_modelViewMatrix": "modelViewMatrix",
				"u_projectionMatrix": "projectionMatrix",
				"u_normalMatrix": "normalMatrix",
				"u_SceneLight_0_matrix": "SceneLight_0_matrix",
				"u_SceneLight_0_color": "SceneLight_0_color",
				"u_SceneLight_1_matrix": "SceneLight_1_matrix",
				"u_SceneLight_1_color": "SceneLight_1_color",
				"u_ambient_light_color": "ambient_light_color",
				"u_Shininess": "Shininess",
				"u_Cutoff": "Cutoff",
				"u_Color": "Color",
				"u_SpecColor": "SpecColor"
			},
			"states": {
				"enable": [
					2929
				],
				"functions": {
					"depthMask": [true]
				}
			}
		},
		"technique_cf7f0059-7aeb-53a4-2b67-c83d863a9ffa": {
			"program": "program_cf7f0059-7aeb-53a4-2b67-c83d863a9ffa",
			"parameters": {
				"position": {
					"type": 35665,
					"semantic": "POSITION"
				},
				"normal": {
					"type": 35665,
					"semantic": "NORMAL"
				},
				"color": {
					"type": 35666,
					"semantic": "COLOR"
				},
				"tangent": {
					"type": 35666,
					"semantic": "TANGENT"
				},
				"texcoord0": {
					"type": 35665,
					"semantic": "TEXCOORD_0"
				},
				"modelViewMatrix": {
					"type": 35676,
					"semantic": "MODELVIEW"
				},
				"projectionMatrix": {
					"type": 35676,
					"semantic": "PROJECTION"
				},
				"normalMatrix": {
					"type": 35675,
					"semantic": "MODELVIEWINVERSETRANSPOSE"
				},
				"SceneLight_0_matrix": {
					"type": 35676,
					"semantic": "MODELVIEW",
					"node": "node_SceneLight_0_i1"
				},
				"SceneLight_0_color": {
					"type": 35666,
					"node": "node_SceneLight_0_i1"
				},
				"SceneLight_1_matrix": {
					"type": 35676,
					"semantic": "MODELVIEW",
					"node": "node_SceneLight_1_i2"
				},
				"SceneLight_1_color": {
					"type": 35666,
					"node": "node_SceneLight_1_i2"
				},
				"ambient_light_color": {
					"type": 35666
				},
				"Color": {
					"type": 35666
				}
			},
			"attributes": {
				"a_position": "position",
				"a_normal": "normal",
				"a_color": "color",
				"a_tangent": "tangent",
				"a_texcoord0": "texcoord0"
			},
			"uniforms": {
				"u_modelViewMatrix": "modelViewMatrix",
				"u_projectionMatrix": "projectionMatrix",
				"u_normalMatrix": "normalMatrix",
				"u_SceneLight_0_matrix": "SceneLight_0_matrix",
				"u_SceneLight_0_color": "SceneLight_0_color",
				"u_SceneLight_1_matrix": "SceneLight_1_matrix",
				"u_SceneLight_1_color": "SceneLight_1_color",
				"u_ambient_light_color": "ambient_light_color",
				"u_Color": "Color"
			},
			"states": {
				"enable": [
					2929,
					2884
				],
				"functions": {
					"depthMask": [true]
				}
			}
		}
	},
	"materials": {
		"material_faaa4d44-fcfb-4177-96be-753ac0421ba3": {
			"technique": "technique_faaa4d44-fcfb-4177-96be-753ac0421ba3",
			"values": {
				"SceneLight_0_color": [0.7780392, 0.8156863, 0.9913726, 1],
				"SceneLight_1_color": [0.4282353, 0.4211765, 0.3458824, 1],
				"ambient_light_color": [0.3921569, 0.3921569, 0.3921569, 1],
				"Shininess": 0.743,
				"Cutoff": 0.5,
				"Color": [1, 1, 1, 1],
				"SpecColor": [0.1985294, 0.1985294, 0.1985294, 0]
			},
			"name": "material_faaa4d44-fcfb-4177-96be-753ac0421ba3"
		},
		"material_cf7f0059-7aeb-53a4-2b67-c83d863a9ffa": {
			"technique": "technique_cf7f0059-7aeb-53a4-2b67-c83d863a9ffa",
			"values": {
				"SceneLight_0_color": [0.7780392, 0.8156863, 0.9913726, 1],
				"SceneLight_1_color": [0.4282353, 0.4211765, 0.3458824, 1],
				"ambient_light_color": [0.3921569, 0.3921569, 0.3921569, 1],
				"Color": [1, 1, 1, 1]
			},
			"name": "material_cf7f0059-7aeb-53a4-2b67-c83d863a9ffa"
		}
	},
	"nodes": {
		"node_ShinyHull_faaa4d44-fcfb-4177-96be-753ac0421ba3_0_i0": {
			"name": "node_ShinyHull_faaa4d44-fcfb-4177-96be-753ac0421ba3_0_i0",
			"meshes": [
				"mesh_ShinyHull_faaa4d44-fcfb-4177-96be-753ac0421ba3_0_i0"
			],
			"matrix": [1, 0, 0, 0, 0, 1, 0, 0, 0, 0, 1, 0, 0, 0, 0, 1]
		},
		"node_SceneLight_0_i1": {
			"name": "node_SceneLight_0_i1",
			"light": "SceneLight_0",
			"matrix": [0.898794, 0.2191856, -0.3796406, 0, -0.4383712, 0.449397, -0.7783785, 0, -1.490116E-08, 0.8660254, 0.4999999, 0, -0.4427362, 1.262153, 0.6610945, 1]
		},
		"node_SceneLight_1_i2": {
			"name": "node_SceneLight_1_i2",
			"light": "SceneLight_1",
			"matrix": [0.7660446, -0.4924039, -0.4131757, 0, -0.6427875, -0.5868244, -0.4924039, 0, 2.980232E-08, 0.6427875, -0.7660447, 0, -0.4427361, 1.224118, 0.4453887, 1]
		},
		"node_Spikes_cf7f0059-7aeb-53a4-2b67-c83d863a9ffa_0_i0": {
			"name": "node_Spikes_cf7f0059-7aeb-53a4-2b67-c83d863a9ffa_0_i0",
			"meshes": [
				"mesh_Spikes_cf7f0059-7aeb-53a4-2b67-c83d863a9ffa_0_i0"
			],
			"matrix": [1, 0, 0, 0, 0, 1, 0, 0, 0, 0, 1, 0, 0, 0, 0, 1]
		}
	},
	"scene": "defaultScene",
	"scenes": {
		"defaultScene": {
			"nodes": [
				"node_ShinyHull_faaa4d44-fcfb-4177-96be-753ac0421ba3_0_i0",
				"node_SceneLight_0_i1",
				"node_SceneLight_1_i2",
				"node_Spikes_cf7f0059-7aeb-53a4-2b67-c83d863a9ffa_0_i0"
			],
			"extras": {
				"TB_EnvironmentGuid": "ab080599-e465-4a6d-8587-43bf495af68b",
				"TB_Environment": "Standard",
				"TB_UseGradient": "true",
				"TB_SkyColorA": "0.2745098, 0.2745098, 0.3176471",
				"TB_SkyColorB": "0.03529412, 0.03529412, 0.08627451",
				"TB_SkyGradientDirection": "0, 1, 0",
				"TB_FogColor": "0.1647059, 0.1647059, 0.2078431",
				"TB_FogDensity": "0.0025",
				"TB_SkyColorHorizon": "0.2745098, 0.2745098, 0.3176471",
				"TB_SkyColorZenith": "0.03529412, 0.03529412, 0.08627451"
			}
		}
	}
}